<?xml version="1.0" standalone="no"?>
<!DOCTYPE svg PUBLIC "-//W3C//DTD SVG 20010904//EN"
 "http://www.w3.org/TR/2001/REC-SVG-20010904/DTD/svg10.dtd">
<svg version="1.0" xmlns="http://www.w3.org/2000/svg"
 width="500.000000pt" height="500.000000pt" viewBox="0 0 500.000000 500.000000"
 preserveAspectRatio="xMidYMid meet">
<metadata>
Created by potrace 1.11, written by Peter Selinger 2001-2013
</metadata>
<g transform="translate(0.000000,500.000000) scale(0.100000,-0.100000)"
fill="#000000" stroke="none">
<path d="M0 2500 l0 -2500 2500 0 2500 0 0 2500 0 2500 -2500 0 -2500 0 0
-2500z m4950 5 l0 -2455 -2455 0 -2455 0 0 2455 0 2455 2455 0 2455 0 0 -2455z"/>
<path d="M1292 4030 c-179 -47 -287 -188 -265 -348 9 -66 26 -101 69 -145 52
-52 120 -81 271 -118 246 -59 290 -75 339 -124 43 -43 44 -46 44 -108 0 -50
-5 -71 -23 -98 -28 -41 -77 -75 -131 -91 -57 -17 -211 -14 -269 5 -100 32
-172 112 -185 205 l-7 47 -74 3 -74 3 6 -62 c7 -76 55 -176 108 -224 85 -77
210 -118 359 -118 203 0 362 80 424 213 26 56 27 185 2 242 -50 115 -143 166
-417 228 -158 36 -220 62 -260 108 -29 32 -31 40 -27 94 5 64 25 99 77 135 74
50 226 55 323 10 66 -30 104 -76 121 -146 l12 -51 74 0 74 0 -7 43 c-25 163
-129 271 -294 306 -78 16 -187 13 -270 -9z"/>
<path d="M3190 4039 c-129 -25 -273 -134 -337 -254 -60 -114 -78 -194 -78
-345 0 -115 3 -146 24 -208 99 -301 410 -452 706 -341 56 21 146 84 163 115 8
14 13 5 26 -42 9 -32 19 -65 21 -71 3 -8 23 -13 55 -13 l50 0 0 300 0 300
-255 0 -256 0 3 -62 3 -63 183 -3 c209 -3 194 6 168 -103 -36 -154 -146 -246
-317 -264 -149 -16 -298 66 -368 202 -52 104 -71 283 -42 408 31 131 111 239
216 291 55 26 69 29 160 28 78 0 112 -5 155 -22 85 -34 153 -110 174 -194 6
-28 8 -28 82 -28 l76 0 -6 38 c-21 112 -111 231 -218 285 -99 50 -266 70 -388
46z"/>
<path d="M2250 3450 l0 -570 75 0 75 0 0 570 0 570 -75 0 -75 0 0 -570z"/>
<path d="M660 1510 l0 -570 435 0 435 0 0 105 0 105 -310 0 -310 0 0 140 0
140 280 0 281 0 -3 98 -3 97 -277 3 -278 2 0 120 0 120 305 0 305 0 0 105 0
105 -430 0 -430 0 0 -570z"/>
<path d="M1850 1509 l0 -571 313 4 c352 5 359 6 477 84 145 95 220 261 220
489 0 293 -130 488 -367 549 -49 13 -120 16 -352 16 l-291 0 0 -571z m585 333
c100 -46 146 -118 167 -262 9 -61 9 -99 0 -160 -18 -125 -62 -194 -150 -237
-53 -26 -67 -28 -204 -32 l-148 -3 0 362 0 362 143 -4 c120 -3 150 -7 192 -26z"/>
<path d="M3193 1673 c3 -319 8 -419 19 -458 52 -176 175 -271 383 -294 241
-28 444 54 523 209 18 36 37 89 42 119 6 29 10 229 10 442 l0 389 -124 0 -125
0 -3 -402 c-3 -398 -3 -404 -26 -450 -34 -70 -75 -91 -184 -96 -67 -3 -99 0
-133 12 -53 21 -100 71 -114 123 -7 24 -11 186 -11 426 l0 387 -131 0 -131 0
5 -407z"/>
</g>
</svg>
